<svg width="24" height="24" viewBox="0 0 24 24" fill="none" xmlns="http://www.w3.org/2000/svg">
<g id="Notifications">
<path id="Vector" d="M11.6519 3.91314C12.1802 3.91314 12.6085 3.48487 12.6085 2.95657C12.6085 2.42827 12.1802 2 11.6519 2C11.1236 2 10.6953 2.42827 10.6953 2.95657C10.6953 3.48487 11.1236 3.91314 11.6519 3.91314Z" fill="#04315B" stroke="#04315B" stroke-width="2"/>
<path id="Vector_2" d="M13.5646 19.0586C13.5646 20.1152 12.708 20.9717 11.6514 20.9717C10.5948 20.9717 9.73828 20.1152 9.73828 19.0586" stroke="#04315B" stroke-width="2"/>
<path id="Vector_3" d="M5.91314 18.2616V9.6525C5.91314 8.13031 6.51782 6.67047 7.59417 5.59412C8.67052 4.51777 10.1304 3.91309 11.6526 3.91309C13.1747 3.91309 14.6346 4.51777 15.7109 5.59412C16.7873 6.67047 17.392 8.13031 17.392 9.6525V18.2616M5.91314 18.2616H17.392M5.91314 18.2616H4M17.392 18.2616H19.3051" stroke="#04315B" stroke-width="2" stroke-linecap="round" stroke-linejoin="round"/>
</g>
</svg>
