<svg width="19" height="19" viewBox="0 0 19 19" fill="none" xmlns="http://www.w3.org/2000/svg">
<path id="Vector" d="M17.5792 17.5792L12.0528 12.0528M1 7.44748C1 8.29418 1.16677 9.13258 1.49079 9.91483C1.8148 10.6971 2.28972 11.4078 2.88842 12.0065C3.48713 12.6052 4.19789 13.0802 4.98014 13.4042C5.76238 13.7282 6.60079 13.895 7.44748 13.895C8.29418 13.895 9.13258 13.7282 9.91483 13.4042C10.6971 13.0802 11.4078 12.6052 12.0065 12.0065C12.6052 11.4078 13.0802 10.6971 13.4042 9.91483C13.7282 9.13258 13.895 8.29418 13.895 7.44748C13.895 6.60079 13.7282 5.76238 13.4042 4.98014C13.0802 4.19789 12.6052 3.48713 12.0065 2.88842C11.4078 2.28972 10.6971 1.8148 9.91483 1.49079C9.13258 1.16677 8.29418 1 7.44748 1C6.60079 1 5.76238 1.16677 4.98014 1.49079C4.19789 1.8148 3.48713 2.28972 2.88842 2.88842C2.28972 3.48713 1.8148 4.19789 1.49079 4.98014C1.16677 5.76238 1 6.60079 1 7.44748Z" stroke="#04315B" stroke-width="2" stroke-linecap="round" stroke-linejoin="round"/>
</svg>
