<svg width="42" height="28" viewBox="0 0 42 28" fill="none" xmlns="http://www.w3.org/2000/svg">
<g id="Vector">
<path d="M39.3327 15.8331H30.7771L31.3475 16.3763L33.629 20.722H39.3327V15.8331Z" fill="#3C9284"/>
<path d="M2.66602 21.9442H0.832682C0.832682 22.9567 1.65349 23.7776 2.66602 23.7776L2.66602 21.9442ZM29.5549 2.44331H31.3882C31.3882 1.43079 30.5674 0.60998 29.5549 0.60998V2.44331ZM3.78529 4.27134L5.34845 5.22928L3.78529 4.27134ZM9.38824 2.44331L9.14797 4.26083C9.22763 4.27136 9.30789 4.27665 9.38824 4.27665V2.44331ZM2.66602 7.31854L0.842051 7.13343C0.835809 7.19494 0.832682 7.25672 0.832682 7.31854H2.66602ZM34.4438 8.43546L35.8812 7.2975C35.5335 6.85826 35.004 6.60212 34.4438 6.60212V8.43546ZM39.3327 14.6109H41.166C41.166 14.1978 41.0265 13.7968 40.7701 13.4729L39.3327 14.6109ZM39.3327 21.9435V23.7768C40.3452 23.7768 41.166 22.956 41.166 21.9435H39.3327ZM30.7771 15.8331V13.9998C30.0275 13.9998 29.3533 14.4562 29.0749 15.1522C28.7965 15.8483 28.9699 16.6437 29.5128 17.1607L30.7771 15.8331ZM39.3327 15.8331H41.166C41.166 14.8206 40.3452 13.9998 39.3327 13.9998V15.8331ZM39.3327 20.722V22.5553C40.3452 22.5553 41.166 21.7345 41.166 20.722H39.3327ZM33.629 20.722L32.0057 21.5742C32.3225 22.1775 32.9476 22.5553 33.629 22.5553V20.722ZM31.3475 16.3763L32.9707 15.5241C32.8778 15.3472 32.7566 15.1866 32.6119 15.0487L31.3475 16.3763ZM11.8327 21.9442C11.8327 22.9567 11.0119 23.7776 9.99935 23.7776V27.4442C13.0369 27.4442 15.4993 24.9818 15.4993 21.9442H11.8327ZM9.99935 23.7776C8.98683 23.7776 8.16602 22.9567 8.16602 21.9442H4.49935C4.49935 24.9818 6.96178 27.4442 9.99935 27.4442V23.7776ZM8.16602 21.9442C8.16602 20.9317 8.98683 20.1109 9.99935 20.1109V16.4442C6.96178 16.4442 4.49935 18.9067 4.49935 21.9442H8.16602ZM9.99935 20.1109C11.0119 20.1109 11.8327 20.9317 11.8327 21.9442H15.4993C15.4993 18.9067 13.0369 16.4442 9.99935 16.4442V20.1109ZM31.3882 21.9442C31.3882 22.9567 30.5674 23.7776 29.5549 23.7776V27.4442C32.5925 27.4442 35.0549 24.9818 35.0549 21.9442H31.3882ZM29.5549 23.7776C28.5424 23.7776 27.7216 22.9567 27.7216 21.9442H24.0549C24.0549 24.9818 26.5173 27.4442 29.5549 27.4442V23.7776ZM27.7216 21.9442C27.7216 20.9317 28.5424 20.1109 29.5549 20.1109V16.4442C26.5173 16.4442 24.0549 18.9067 24.0549 21.9442H27.7216ZM29.5549 20.1109C30.5674 20.1109 31.3882 20.9317 31.3882 21.9442H35.0549C35.0549 18.9067 32.5925 16.4442 29.5549 16.4442V20.1109ZM5.95853 20.1109H2.66602V23.7776H5.95853V20.1109ZM27.7216 2.44331V18.2776H31.3882V2.44331H27.7216ZM5.34845 5.22928C5.62779 4.77346 6.3018 4.4244 7.37145 4.28399C7.85355 4.2207 8.31185 4.21516 8.65405 4.22702C8.82272 4.23287 8.95711 4.24272 9.04463 4.25051C9.08825 4.25439 9.11979 4.25773 9.13764 4.25972C9.14656 4.26072 9.15201 4.26138 9.15381 4.2616C9.15471 4.26171 9.15469 4.26171 9.15373 4.26158C9.15324 4.26152 9.15253 4.26143 9.15157 4.26131C9.15109 4.26124 9.15055 4.26117 9.14995 4.26109C9.14965 4.26106 9.14916 4.26099 9.14901 4.26097C9.1485 4.2609 9.14797 4.26083 9.38824 2.44331C9.6285 0.625792 9.62795 0.625718 9.62737 0.625643C9.62716 0.625615 9.62657 0.625538 9.62614 0.625482C9.62529 0.62537 9.62438 0.625251 9.62339 0.625123C9.62143 0.624868 9.61921 0.624582 9.61673 0.624267C9.61176 0.623635 9.60577 0.622885 9.59878 0.62203C9.5848 0.620321 9.5668 0.618191 9.54498 0.615752C9.50138 0.610878 9.4424 0.604754 9.36979 0.598289C9.22486 0.585386 9.0239 0.570973 8.78106 0.562556C8.30023 0.54589 7.63083 0.551817 6.89422 0.648513C5.52645 0.828061 3.39899 1.39302 2.22213 3.3134L5.34845 5.22928ZM2.66602 7.31854C4.48998 7.50365 4.48993 7.50413 4.48988 7.50461C4.48987 7.50476 4.48982 7.50523 4.48979 7.50554C4.48972 7.50614 4.48966 7.50673 4.48961 7.5073C4.48949 7.50843 4.48938 7.50948 4.48928 7.51044C4.48907 7.51237 4.4889 7.51396 4.48876 7.51523C4.48848 7.51775 4.48834 7.51896 4.48834 7.5189C4.48836 7.51876 4.48899 7.51354 4.49037 7.50355C4.49313 7.48353 4.4989 7.44465 4.50883 7.38936C4.52876 7.2784 4.56503 7.10393 4.62654 6.88509C4.75064 6.44358 4.9707 5.84569 5.34845 5.22928L2.22213 3.3134C1.62908 4.28114 1.28951 5.20684 1.09667 5.8929C0.999711 6.23784 0.938183 6.52814 0.89994 6.74101C0.880784 6.84764 0.867363 6.93543 0.858218 7.00161C0.853642 7.03472 0.850128 7.06248 0.847495 7.08455C0.846179 7.09559 0.845082 7.10521 0.844182 7.11336C0.843732 7.11744 0.843332 7.12116 0.842977 7.12451C0.8428 7.12618 0.842635 7.12776 0.842481 7.12925C0.842404 7.12999 0.842329 7.13071 0.842258 7.13141C0.842222 7.13176 0.84217 7.13227 0.842152 7.13244C0.842101 7.13294 0.842051 7.13343 2.66602 7.31854ZM13.666 23.7776H24.666V20.1109H13.666V23.7776ZM29.5549 10.2688H34.4438V6.60212H29.5549V10.2688ZM33.0064 9.57341L37.8953 15.7488L40.7701 13.4729L35.8812 7.2975L33.0064 9.57341ZM37.4993 14.6109V21.9435H41.166V14.6109H37.4993ZM39.3327 20.1101H31.3882V23.7768H39.3327V20.1101ZM30.7771 17.6664H39.3327V13.9998H30.7771V17.6664ZM37.4993 15.8331V20.722H41.166V15.8331H37.4993ZM39.3327 18.8887H33.629V22.5553H39.3327V18.8887ZM35.2522 19.8698L32.9707 15.5241L29.7243 17.2285L32.0057 21.5742L35.2522 19.8698ZM32.6119 15.0487L32.0415 14.5055L29.5128 17.1607L30.0831 17.7039L32.6119 15.0487ZM9.38824 4.27665H29.5549V0.60998H9.38824V4.27665ZM4.49935 21.9442V7.31854H0.832682V21.9442H4.49935Z" fill="#3C9284"/>
</g>
</svg>
